HIERARCHY
ROOT ui
{
	 OFFSET 0 0 0
	 CHANNELS 3 XPosition YPosition Z Position
	 EndSite
	 {
	 OFFSET 0 -1 0
	 }
}
ROOT li
{
	 OFFSET 0 0 0
	 CHANNELS 3 XPosition YPosition Z Position
	 EndSite
	 {
	 OFFSET 0 -1 0
	 }
}
ROOT ul
{
	 OFFSET 0 0 0
	 CHANNELS 3 XPosition YPosition Z Position
	 EndSite
	 {
	 OFFSET 0 -1 0
	 }
}
ROOT ll
{
	 OFFSET 0 0 0
	 CHANNELS 3 XPosition YPosition Z Position
	 EndSite
	 {
	 OFFSET 0 -1 0
	 }
}
ROOT tt
{
	 OFFSET 0 0 0
	 CHANNELS 3 XPosition YPosition Z Position
	 EndSite
	 {
	 OFFSET 0 -1 0
	 }
}
ROOT tb
{
	 OFFSET 0 0 0
	 CHANNELS 3 XPosition YPosition Z Position
	 EndSite
	 {
	 OFFSET 0 -1 0
	 }
}
ROOT td
{
	 OFFSET 0 0 0
	 CHANNELS 3 XPosition YPosition Z Position
	 EndSite
	 {
	 OFFSET 0 -1 0
	 }
}
ROOT v
{
	 OFFSET 0 0 0
	 CHANNELS 3 XPosition YPosition Z Position
	 EndSite
	 {
	 OFFSET 0 -1 0
	 }
}
ROOT bn
{
	 OFFSET 0 0 0
	 CHANNELS 3 XPosition YPosition Z Position
	 EndSite
	 {
	 OFFSET 0 -1 0
	 }
}
MOTION
Frames: 21
Frame Time: 0.002
0.0015152879953384399	-0.001877297043800354	0		0.5556182250976562	-2.346893798828125	0		-1.0802908935546875	-0.060531455993652346	0		-0.5753944091796875	-2.34093603515625	0		1.4204718017578124	-0.7434447631835938	0		3.099292724609375	-0.2821275634765625	0		4.70424365234375	-0.05291641235351562	0		5.72066943359375	0.26257192993164064	0		-0.3493457641601562	5.926904296875	0		
-0.07463016510009765	-3.0278998613357544E-4	0		0.5043667907714844	-2.341666259765625	0		-1.0794586181640624	-0.06084127426147461	0		-0.5638115234375	-2.34941455078125	0		1.4612315673828125	-0.74641455078125	0		3.120009765625	-0.290958740234375	0		4.705076171875	-0.053605232238769535	0		5.71484326171875	0.2614642333984375	0		-0.34812112426757813	5.92654638671875	0		
0.002269623041152954	0.005361188888549804	0		0.5310059204101563	-2.34441552734375	0		-1.05364599609375	-0.061475357055664065	0		-0.60495556640625	-2.334247802734375	0		1.4309913330078126	-0.747515380859375	0		3.1099970703125	-0.27641815185546875	0		4.698966796875	-0.04821694183349609	0		5.711927734375	0.27409512329101565	0		-0.33178118896484377	5.93698876953125	0		
-0.06595155334472656	0.005828015804290772	0		0.5107442321777343	-2.335584716796875	0		-1.06575048828125	-0.051644058227539064	0		-0.5663341064453125	-2.335083740234375	0		1.4718515625	-0.7375067138671875	0		3.110639892578125	-0.28601336669921873	0		4.70973583984375	-0.04903935623168945	0		5.7188935546875	0.27258868408203124	0		-0.33063018798828125	5.93661181640625	0		
0.011738728523254395	0.0034644680023193358	0		0.5601795043945312	-2.34663037109375	0		-1.0650450439453125	-0.05197633361816406	0		-0.5687938842773438	-2.33740869140625	0		1.42645556640625	-0.7424150390625	0		3.13846728515625	-0.2759432067871094	0		4.71044140625	-0.049726478576660155	0		5.72581396484375	0.27110226440429686	0		-0.2954965515136719	5.9408056640625	0		
-0.06864717864990234	0.0020959060192108155	0		0.4899588928222656	-2.324159423828125	0		-1.0644154052734376	-0.05230704879760742	0		-0.535364013671875	-2.343185546875	0		1.4670162353515626	-0.745397705078125	0		3.1179716796875	-0.2852536315917969	0		4.70799560546875	-0.05635697555541992	0		5.72626171875	0.2698472900390625	0		-0.32857647705078125	5.9358603515625	0		
0.005835916996002197	-0.004225220203399658	0		0.5331126098632812	-2.3461162109375	0		-1.06386572265625	-0.05263302230834961	0		-0.5698999633789062	-2.34009619140625	0		1.4275562744140624	-0.7433552856445312	0		3.103509521484375	-0.28561996459960937	0		4.71162109375	-0.051040409088134765	0		5.7202333984375	0.2688371887207031	0		-0.3276960754394531	5.93549365234375	0		
-0.06358111190795898	0.004294040203094482	0		0.50852001953125	-2.342197998046875	0		-1.050521728515625	-0.06311631393432617	0		-0.5566357421875	-2.347605224609375	0		1.4279932861328124	-0.7438020629882812	0		3.126815185546875	-0.29844580078125	0		4.7069921875	-0.05959224319458008	0		5.72349462890625	0.28143624877929685	0		-0.3249527893066406	5.9321123046875	0		
0.020897666931152345	0.008862265586853027	0		0.540878173828125	-2.337990966796875	0		-1.0460653076171875	-0.05947601699829102	0		-0.5831832885742188	-2.335592041015625	0		1.436506591796875	-0.7333319702148438	0		3.123632568359375	-0.26590493774414065	0		4.71739697265625	-0.060303489685058595	0		5.73019287109375	0.2784183654785156	0		-0.32523513793945313	5.9337822265625	0		
0.017204217910766602	0.004571912765502929	0		0.539107666015625	-2.340330078125	0		-1.0585810546875	-0.04960519027709961	0		-0.49501260375976563	-2.343038330078125	0		1.4717132568359375	-0.74318505859375	0		3.0986845703125	-0.2890594787597656	0		4.71285498046875	-0.05278734970092774	0		5.721109375	0.2655783996582031	0		-0.34074560546875	5.92366162109375	0		
0.014487909317016602	0.0012871060371398926	0		0.5093009948730469	-2.343287353515625	0		-1.062312255859375	-0.05383454513549805	0		-0.566738525390625	-2.339413818359375	0		1.4689544677734374	-0.7475272216796875	0		3.112148681640625	-0.27767349243164063	0		4.7060205078125	-0.06520524597167969	0		5.7248291015625	0.25068194580078124	0		-0.3401897888183594	5.92335205078125	0		
0.014787569999694824	9.815130233764649E-4	0		0.53446484375	-2.34793310546875	0		-1.0620145263671874	-0.05410247802734375	0		-0.5335880737304688	-2.345125244140625	0		1.46922802734375	-0.7478836669921874	0		3.129269287109375	-0.29130609130859375	0		4.71039501953125	-0.05972713088989258	0		5.72154736328125	0.26376153564453125	0		-0.29048025512695314	5.93842431640625	0		
0.00798393678665161	-0.006215426921844482	0		0.483775390625	-2.34057666015625	0		-1.1197896728515624	-0.05860621643066406	0		-0.590380615234375	-2.345658203125	0		1.43257275390625	-0.7417368774414063	0		3.11283349609375	-0.2694699401855469	0		4.71375732421875	-0.054196533203125	0		5.72175	0.26296749877929687	0		-0.324076416015625	5.9335859375	0		
0.018391870498657228	0.0033826310634613036	0		0.5399906616210938	-2.3415869140625	0		-1.057400390625	-0.05065471649169922	0		-0.5610333862304687	-2.336291748046875	0		1.434871826171875	-0.7390703735351563	0		3.117884521484375	-0.28688311767578123	0		4.71403515625	-0.05458665084838867	0		5.73128369140625	0.2740678405761719	0		-0.28958538818359375	5.93788134765625	0		
0.015627432823181152	1.6688600182533265E-4	0		0.5033244934082032	-2.3333720703125	0		-1.057127197265625	-0.05088787078857422	0		-0.5628324584960938	-2.3385087890625	0		1.435131103515625	-0.7393541259765625	0		3.142241943359375	-0.2805137634277344	0		4.71123046875	-0.06089752578735352	0		5.72856005859375	0.26140863037109374	0		-0.323252685546875	5.9330751953125	0		
0.015895651817321776	-7.180599868297578E-5	0		0.5633431396484375	-2.350398193359375	0		-0.9828790283203125	-0.053073238372802735	0		-0.5626005249023438	-2.338738525390625	0		1.430297119140625	-0.7465491943359375	0		3.113521240234375	-0.2794234924316406	0		4.70660205078125	-0.053144668579101564	0		5.7287509765625	0.26084365844726565	0		-0.3039591064453125	5.9275947265625	0		
0.00906214714050293	-0.007202696800231933	0		0.51064404296875	-2.344936767578125	0		-1.0566031494140624	-0.05132082366943359	0		-0.5653948974609375	-2.34091552734375	0		1.4705166015625	-0.7493084716796875	0		3.10480224609375	-0.27756314086914063	0		4.71483203125	-0.05552298355102539	0		5.72893310546875	0.2603507080078125	0		-0.322570068359375	5.93262255859375	0		
0.016390110015869142	-5.010570287704468E-4	0		0.5398629760742187	-2.345524658203125	0		-1.0434976806640626	-0.061688709259033206	0		-0.585184814453125	-2.341857421875	0		1.4158839111328125	-0.7388087158203125	0		3.127879150390625	-0.29008953857421876	0		4.70996533203125	-0.06369564056396484	0		5.72910205078125	0.2599267272949219	0		-0.32130548095703126	5.93140576171875	0		
-0.05329297637939453	0.008221353530883789	0		0.5171689453125	-2.337416748046875	0		-1.031161865234375	-0.05203257369995117	0		-0.5459754028320313	-2.341553955078125	0		1.480095947265625	-0.7388372192382813	0		3.12145068359375	-0.2621995849609375	0		4.719353515625	-0.050017860412597655	0		5.73216748046875	0.27158810424804686	0		-0.3210811767578125	5.931216796875	0		
0.01980128288269043	0.0020977189540863036	0		0.5563063354492187	-2.340096923828125	0		-1.0559940185546874	-0.05187927627563477	0		-0.5597552490234375	-2.337544189453125	0		1.4362396240234374	-0.7404347534179687	0		3.0993837890625	-0.2800818176269531	0		4.71544140625	-0.05613498687744141	0		5.7264404296875	0.2455278778076172	0		-0.32190536499023437	5.9320576171875	0		
-0.06010003662109375	9.860259890556336E-4	0		0.5045025329589844	-2.334572265625	0		-1.0558758544921876	-0.05203794479370117	0		-0.5276965942382813	-2.34311767578125	0		1.471239990234375	-0.7500397338867187	0		3.1114365234375	-0.28538119506835935	0		4.7124814453125	-0.06223280715942383	0		5.7223388671875	0.26273007202148435	0		-0.33695135498046874	5.92109814453125	0		
